<?xml version="1.0" encoding="UTF-8"?>
<svg id="Layer_1" xmlns="http://www.w3.org/2000/svg" version="1.1" viewBox="0 0 900 293">
  <!-- Generator: Adobe Illustrator 29.8.3, SVG Export Plug-In . SVG Version: 2.1.1 Build 3)  -->
  <defs>
    <style>
      .st0 {
        fill: #fff;
      }

      .st1 {
        fill: #f05a26;
        fill-rule: evenodd;
      }

      .st2 {
        fill: #231f20;
      }

      .st3 {
        display: none;
      }
    </style>
  </defs>
  <path class="st1" d="M35.89,177c21.74-33.99,43.49-67.99,65.23-101.98,2.64-4.12-.32-9.52-5.21-9.52h-36.3c-2.11,0-4.07,1.07-5.21,2.85L12.53,133.82c-1.3,2.03-1.3,4.63,0,6.66l23.36,36.52h0ZM47.34,194.92h47.6c2.11,0,4.07-1.07,5.21-2.85l74.86-117.05c2.64-4.12-.32-9.52-5.21-9.52h-36.3c-2.11,0-4.07,1.07-5.21,2.85l-80.95,126.56h.01ZM146.73,155.07l-19.4,30.33c-2.64,4.12.32,9.52,5.21,9.52h28.38c4.88,0,7.84-5.4,5.21-9.52l-19.4-30.33h-.01Z"/>
  <g class="st3">
    <path class="st2" d="M228.87,230.38v-9.71l-7.23-13.17h3.36l3.23,6.31c.88,1.73,1.56,3.12,2.27,4.72h.07c.65-1.49,1.43-2.99,2.31-4.72l3.29-6.31h3.36l-7.67,13.14v9.75h-2.99Z"/>
    <path class="st2" d="M256.88,222.03c0,6.08-4.21,8.73-8.18,8.73-4.45,0-7.88-3.26-7.88-8.45,0-5.5,3.6-8.73,8.15-8.73s7.91,3.43,7.91,8.45ZM243.84,222.2c0,3.6,2.07,6.31,4.99,6.31s4.99-2.68,4.99-6.38c0-2.78-1.39-6.31-4.92-6.31s-5.06,3.26-5.06,6.38h0Z"/>
    <path class="st2" d="M276.94,225.9c0,1.7.03,3.19.14,4.48h-2.65l-.17-2.68h-.07c-.78,1.32-2.51,3.06-5.43,3.06-2.58,0-5.67-1.43-5.67-7.2v-9.61h2.99v9.1c0,3.12.95,5.23,3.67,5.23,2,0,3.4-1.39,3.94-2.72.17-.44.27-.98.27-1.53v-10.08h2.99v11.95h0Z"/>
    <path class="st2" d="M284.44,219.07c0-1.94-.03-3.6-.14-5.13h2.61l.1,3.23h.14c.75-2.21,2.55-3.6,4.55-3.6.34,0,.58.03.85.1v2.82c-.31-.07-.61-.1-1.02-.1-2.1,0-3.6,1.6-4.01,3.84-.07.41-.14.88-.14,1.39v8.76h-2.95v-11.31h.01Z"/>
    <path class="st2" d="M307.94,207.49h12.33v2.48h-9.37v7.61h8.66v2.45h-8.66v10.36h-2.95v-22.9Z"/>
    <path class="st2" d="M329.36,209.33c.03,1.02-.71,1.83-1.9,1.83-1.05,0-1.8-.82-1.8-1.83s.78-1.87,1.87-1.87,1.83.81,1.83,1.87ZM326.03,230.38v-16.43h2.99v16.43h-2.99Z"/>
    <path class="st2" d="M336.52,218.39c0-1.7-.03-3.09-.14-4.45h2.65l.17,2.72h.07c.81-1.56,2.72-3.09,5.43-3.09,2.27,0,5.81,1.36,5.81,7v9.81h-2.99v-9.47c0-2.65-.99-4.86-3.8-4.86-1.97,0-3.5,1.39-4.01,3.06-.14.37-.2.88-.2,1.39v9.88h-2.99v-11.98h0Z"/>
    <path class="st2" d="M367,230.38l-.24-2.07h-.1c-.92,1.29-2.68,2.45-5.02,2.45-3.33,0-5.03-2.34-5.03-4.72,0-3.97,3.53-6.15,9.88-6.11v-.34c0-1.36-.37-3.8-3.74-3.8-1.53,0-3.12.48-4.28,1.22l-.68-1.97c1.36-.88,3.33-1.46,5.4-1.46,5.03,0,6.25,3.43,6.25,6.72v6.15c0,1.42.07,2.82.27,3.94h-2.72,0ZM366.56,221.99c-3.26-.07-6.96.51-6.96,3.7,0,1.94,1.29,2.85,2.82,2.85,2.14,0,3.5-1.36,3.97-2.75.1-.31.17-.65.17-.95v-2.85h0Z"/>
    <path class="st2" d="M376.81,206.27h2.99v24.11h-2.99v-24.11Z"/>
    <path class="st2" d="M416.5,220.33c-.17-3.19-.37-7.03-.34-9.88h-.1c-.78,2.68-1.73,5.53-2.89,8.69l-4.04,11.1h-2.24l-3.7-10.9c-1.09-3.23-2-6.18-2.65-8.9h-.07c-.07,2.85-.24,6.69-.44,10.12l-.61,9.81h-2.82l1.6-22.88h3.77l3.9,11.07c.95,2.82,1.73,5.33,2.31,7.71h.1c.58-2.31,1.39-4.82,2.41-7.71l4.07-11.07h3.77l1.43,22.88h-2.89l-.58-10.05h.01Z"/>
    <path class="st2" d="M430.69,209.33c.03,1.02-.71,1.83-1.9,1.83-1.05,0-1.8-.82-1.8-1.83s.78-1.87,1.87-1.87,1.83.81,1.83,1.87ZM427.36,230.38v-16.43h2.99v16.43h-2.99Z"/>
    <path class="st2" d="M437.85,206.27h2.99v24.11h-2.99v-24.11Z"/>
    <path class="st2" d="M450.07,222.7c.07,4.04,2.65,5.7,5.64,5.7,2.14,0,3.43-.37,4.55-.85l.51,2.14c-1.05.47-2.85,1.02-5.47,1.02-5.06,0-8.08-3.33-8.08-8.29s2.92-8.86,7.71-8.86c5.36,0,6.79,4.72,6.79,7.74,0,.61-.07,1.09-.1,1.39h-11.55ZM458.83,220.57c.03-1.9-.78-4.86-4.14-4.86-3.02,0-4.35,2.78-4.58,4.86h8.73-.01Z"/>
    <path class="st2" d="M477.8,207.77c1.42-.24,3.29-.44,5.67-.44,2.92,0,5.06.68,6.42,1.9,1.26,1.09,2,2.75,2,4.79s-.61,3.7-1.76,4.89c-1.56,1.66-4.11,2.51-7,2.51-.88,0-1.7-.03-2.38-.2v9.17h-2.95v-22.61h0ZM480.76,218.8c.65.17,1.46.24,2.45.24,3.56,0,5.74-1.73,5.74-4.89s-2.14-4.48-5.4-4.48c-1.29,0-2.28.1-2.79.24v8.9h0Z"/>
    <path class="st2" d="M506.52,230.38l-.24-2.07h-.1c-.92,1.29-2.68,2.45-5.02,2.45-3.33,0-5.03-2.34-5.03-4.72,0-3.97,3.53-6.15,9.88-6.11v-.34c0-1.36-.37-3.8-3.74-3.8-1.53,0-3.12.48-4.28,1.22l-.68-1.97c1.36-.88,3.33-1.46,5.4-1.46,5.03,0,6.25,3.43,6.25,6.72v6.15c0,1.42.07,2.82.27,3.94h-2.72,0ZM506.08,221.99c-3.26-.07-6.96.51-6.96,3.7,0,1.94,1.29,2.85,2.82,2.85,2.14,0,3.5-1.36,3.97-2.75.1-.31.17-.65.17-.95v-2.85h0Z"/>
    <path class="st2" d="M516.33,219.07c0-1.94-.03-3.6-.14-5.13h2.61l.1,3.23h.14c.75-2.21,2.55-3.6,4.55-3.6.34,0,.58.03.85.1v2.82c-.31-.07-.61-.1-1.02-.1-2.1,0-3.6,1.6-4.01,3.84-.07.41-.14.88-.14,1.39v8.76h-2.95v-11.31h.01Z"/>
    <path class="st2" d="M534.39,209.23v4.72h4.28v2.28h-4.28v8.86c0,2.04.58,3.19,2.24,3.19.78,0,1.36-.1,1.73-.2l.14,2.24c-.58.24-1.49.41-2.65.41-1.39,0-2.51-.44-3.22-1.26-.85-.88-1.15-2.34-1.15-4.28v-8.96h-2.55v-2.28h2.55v-3.94l2.92-.78h0Z"/>
    <path class="st2" d="M544.57,218.39c0-1.7-.03-3.09-.14-4.45h2.65l.17,2.72h.07c.81-1.56,2.72-3.09,5.43-3.09,2.28,0,5.81,1.36,5.81,7v9.81h-2.99v-9.47c0-2.65-.99-4.86-3.8-4.86-1.97,0-3.5,1.39-4.01,3.06-.14.37-.2.88-.2,1.39v9.88h-2.99v-11.98h0Z"/>
    <path class="st2" d="M567.62,222.7c.07,4.04,2.65,5.7,5.64,5.7,2.14,0,3.43-.37,4.55-.85l.51,2.14c-1.05.47-2.85,1.02-5.47,1.02-5.06,0-8.08-3.33-8.08-8.29s2.92-8.86,7.71-8.86c5.36,0,6.79,4.72,6.79,7.74,0,.61-.07,1.09-.1,1.39h-11.55ZM576.38,220.57c.03-1.9-.78-4.86-4.14-4.86-3.02,0-4.35,2.78-4.58,4.86h8.73,0Z"/>
    <path class="st2" d="M585.51,219.07c0-1.94-.03-3.6-.14-5.13h2.61l.1,3.23h.14c.75-2.21,2.55-3.6,4.55-3.6.34,0,.58.03.85.1v2.82c-.31-.07-.61-.1-1.02-.1-2.1,0-3.6,1.6-4.01,3.84-.07.41-.14.88-.14,1.39v8.76h-2.95v-11.31h.01Z"/>
  </g>
  <g>
    <g>
      <path class="st0" d="M622.82,235.5v-.52h3.62v.52h-1.52v4.31h-.59v-4.31h-1.52,0Z"/>
      <path class="st0" d="M627.02,234.98h.7l1.65,4.02h.06l1.65-4.02h.7v4.84h-.55v-3.67h-.05l-1.51,3.67h-.53l-1.51-3.67h-.05v3.67h-.55v-4.84h0Z"/>
    </g>
    <g>
      <path class="st0" d="M309.57,239.81h-10.24v-36.94h11.04c3.47,0,6.43.73,8.9,2.2,2.46,1.46,4.36,3.57,5.67,6.3,1.31,2.74,1.97,6.02,1.95,9.84,0,3.91-.7,7.25-2.05,10.02s-3.33,4.9-5.89,6.37c-2.58,1.47-5.69,2.21-9.36,2.21h0ZM301.58,237.72h7.9c3.29,0,6.07-.66,8.33-1.98,2.26-1.31,3.97-3.21,5.13-5.67,1.16-2.46,1.74-5.42,1.72-8.85,0-3.39-.56-6.3-1.68-8.72s-2.74-4.28-4.88-5.58c-2.14-1.3-4.75-1.95-7.84-1.95h-8.7v32.76h.02Z"/>
      <path class="st0" d="M345.72,240.39c-2.5,0-4.68-.62-6.53-1.85-1.85-1.24-3.28-2.93-4.29-5.09-1.01-2.15-1.51-4.61-1.51-7.36s.51-5.23,1.52-7.39,2.41-3.87,4.19-5.12,3.81-1.88,6.09-1.88c1.55,0,3.02.31,4.41.93,1.39.62,2.62,1.51,3.68,2.68s1.9,2.58,2.51,4.22c.61,1.65.91,3.5.91,5.55v1.37h-21.93v-2h19.73c0-2.01-.41-3.82-1.23-5.43-.81-1.61-1.93-2.89-3.33-3.84s-2.98-1.42-4.75-1.42-3.48.52-4.91,1.54c-1.44,1.03-2.58,2.41-3.41,4.16-.84,1.75-1.27,3.69-1.31,5.84v.9c0,2.31.41,4.38,1.21,6.21.81,1.84,1.98,3.28,3.49,4.35s3.33,1.6,5.45,1.6c1.51,0,2.81-.26,3.89-.76,1.07-.51,1.95-1.13,2.64-1.87.68-.73,1.21-1.45,1.55-2.13l2,.81c-.42.92-1.07,1.85-1.95,2.77s-2,1.69-3.36,2.3-2.94.92-4.77.92h0Z"/>
      <path class="st0" d="M366.49,202.87v36.94h-2.2v-36.94h2.2Z"/>
      <path class="st0" d="M376.83,207.2c-.48,0-.9-.17-1.26-.51-.36-.33-.53-.75-.53-1.22s.17-.89.52-1.23c.35-.33.77-.51,1.26-.51s.9.17,1.26.51c.36.34.53.75.53,1.23s-.17.89-.52,1.22c-.35.34-.77.51-1.26.51ZM375.73,239.81v-27.7h2.18v27.7h-2.18Z"/>
      <path class="st0" d="M407.41,212.1l-10.01,27.7h-2.49l-10.01-27.7h2.36l8.8,24.87h.18l8.8-24.87h2.36,0Z"/>
      <path class="st0" d="M424.07,240.39c-2.5,0-4.68-.62-6.53-1.85-1.85-1.24-3.28-2.93-4.29-5.09-1.01-2.15-1.51-4.61-1.51-7.36s.51-5.23,1.52-7.39,2.41-3.87,4.19-5.12,3.81-1.88,6.09-1.88c1.55,0,3.02.31,4.41.93,1.39.62,2.62,1.51,3.68,2.68s1.9,2.58,2.51,4.22c.61,1.65.91,3.5.91,5.55v1.37h-21.93v-2h19.73c0-2.01-.41-3.82-1.23-5.43-.81-1.61-1.93-2.89-3.33-3.84s-2.98-1.42-4.75-1.42-3.48.52-4.91,1.54c-1.44,1.03-2.58,2.41-3.41,4.16-.84,1.75-1.27,3.69-1.31,5.84v.9c0,2.31.41,4.38,1.21,6.21.81,1.84,1.98,3.28,3.49,4.35s3.33,1.6,5.45,1.6c1.51,0,2.81-.26,3.89-.76,1.07-.51,1.95-1.13,2.64-1.87.68-.73,1.21-1.45,1.55-2.13l2,.81c-.42.92-1.07,1.85-1.95,2.77s-2,1.69-3.36,2.3-2.94.92-4.77.92h0Z"/>
      <path class="st0" d="M442.65,239.81v-27.7h2.14v4.33h.2c.6-1.42,1.62-2.56,3.05-3.42s3.06-1.29,4.89-1.29h.57c.19,0,.37,0,.54.02v2.22c-.14,0-.32-.03-.52-.07-.2-.03-.44-.04-.73-.04-1.54,0-2.91.33-4.11.99s-2.14,1.57-2.83,2.74c-.68,1.16-1.03,2.49-1.03,3.97v18.26h-2.2.02Z"/>
      <path class="st0" d="M475.02,239.81v-36.94h12c2.24,0,4.12.4,5.66,1.19s2.71,1.9,3.51,3.33,1.2,3.09,1.2,5c0,1.49-.24,2.81-.72,3.97s-1.15,2.11-2.01,2.86c-.86.75-1.87,1.27-3.02,1.56v.22c1.27.1,2.46.54,3.55,1.32,1.1.79,1.98,1.85,2.64,3.2.67,1.35,1,2.92,1,4.71,0,1.89-.41,3.55-1.21,4.99-.81,1.44-2.02,2.56-3.63,3.38s-3.61,1.21-5.99,1.21h-12.97,0ZM477.28,220.03h10.52c1.57,0,2.91-.34,4.02-1.03,1.1-.68,1.95-1.6,2.53-2.76.58-1.16.87-2.44.87-3.84,0-2.29-.71-4.09-2.13-5.43s-3.44-2-6.06-2h-9.74v15.06h0ZM477.28,237.72h10.72c2.78,0,4.91-.7,6.41-2.1s2.24-3.19,2.24-5.4c0-1.55-.37-2.94-1.09-4.17-.73-1.23-1.74-2.19-3.02-2.91-1.29-.71-2.78-1.07-4.47-1.07h-10.78v15.64h0Z"/>
      <path class="st0" d="M517.75,240.39c-2.5,0-4.68-.62-6.53-1.85-1.85-1.24-3.28-2.93-4.29-5.09-1.01-2.15-1.51-4.61-1.51-7.36s.51-5.23,1.52-7.39,2.41-3.87,4.19-5.12,3.81-1.88,6.09-1.88c1.55,0,3.02.31,4.41.93,1.39.62,2.62,1.51,3.68,2.68s1.9,2.58,2.51,4.22.91,3.5.91,5.55v1.37h-21.93v-2h19.73c0-2.01-.41-3.82-1.23-5.43-.81-1.61-1.93-2.89-3.33-3.84s-2.98-1.42-4.75-1.42-3.48.52-4.91,1.54c-1.44,1.03-2.58,2.41-3.41,4.16s-1.27,3.69-1.31,5.84v.9c0,2.31.41,4.38,1.21,6.21.81,1.84,1.98,3.28,3.49,4.35s3.33,1.6,5.45,1.6c1.51,0,2.81-.26,3.88-.76s1.95-1.13,2.64-1.87c.68-.73,1.21-1.45,1.55-2.13l2,.81c-.42.92-1.07,1.85-1.95,2.77s-2,1.69-3.36,2.3-2.94.92-4.77.92h0Z"/>
      <path class="st0" d="M546.12,212.1v1.97h-12.1v-1.97h12.1ZM538.12,205.47h2.18v27.79c0,1.13.22,2.05.66,2.77.44.71,1.01,1.25,1.73,1.59s1.48.52,2.3.52c.4,0,.74-.03,1.04-.09s.57-.14.84-.23l.54,2c-.34.12-.71.22-1.12.32-.41.09-.89.13-1.45.13-1.16,0-2.24-.26-3.28-.77s-1.86-1.27-2.49-2.25c-.64-.99-.96-2.18-.96-3.57v-28.19h0Z"/>
      <path class="st0" d="M564.06,212.1v1.97h-12.1v-1.97h12.1ZM556.06,205.47h2.18v27.79c0,1.13.22,2.05.66,2.77.44.71,1.01,1.25,1.73,1.59s1.48.52,2.3.52c.4,0,.74-.03,1.04-.09s.57-.14.84-.23l.54,2c-.34.12-.71.22-1.12.32-.41.09-.89.13-1.45.13-1.16,0-2.24-.26-3.28-.77s-1.86-1.27-2.49-2.25c-.64-.99-.96-2.18-.96-3.57v-28.19h0Z"/>
      <path class="st0" d="M582.74,240.39c-2.5,0-4.68-.62-6.53-1.85-1.85-1.24-3.28-2.93-4.29-5.09s-1.51-4.61-1.51-7.36.51-5.23,1.52-7.39,2.41-3.87,4.19-5.12c1.78-1.25,3.81-1.88,6.09-1.88,1.55,0,3.02.31,4.41.93s2.62,1.51,3.68,2.68c1.06,1.16,1.9,2.58,2.51,4.22s.91,3.5.91,5.55v1.37h-21.93v-2h19.73c0-2.01-.41-3.82-1.22-5.43s-1.93-2.89-3.33-3.84-2.98-1.42-4.75-1.42-3.48.52-4.91,1.54c-1.44,1.03-2.58,2.41-3.41,4.16-.84,1.75-1.27,3.69-1.31,5.84v.9c0,2.31.41,4.38,1.21,6.21.81,1.84,1.98,3.28,3.49,4.35s3.33,1.6,5.45,1.6c1.51,0,2.81-.26,3.88-.76s1.95-1.13,2.64-1.87c.68-.73,1.21-1.45,1.55-2.13l2,.81c-.42.92-1.07,1.85-1.95,2.77s-2,1.69-3.36,2.3-2.94.92-4.77.92h0Z"/>
      <path class="st0" d="M601.32,239.81v-27.7h2.14v4.33h.2c.6-1.42,1.61-2.56,3.05-3.42,1.43-.86,3.06-1.29,4.89-1.29h.57c.19,0,.37,0,.54.02v2.22c-.14,0-.32-.03-.52-.07-.2-.03-.44-.04-.73-.04-1.54,0-2.91.33-4.11.99-1.2.67-2.14,1.57-2.83,2.74-.68,1.16-1.03,2.49-1.03,3.97v18.26h-2.2.02Z"/>
      <path class="st0" d="M617.51,240.04c-.54,0-1-.19-1.38-.57-.38-.38-.57-.84-.57-1.37s.19-.99.57-1.37.84-.57,1.37-.57.99.19,1.37.57.57.84.57,1.37c0,.36-.08.69-.26.98-.17.29-.41.53-.71.71-.29.17-.62.26-.98.26h0Z"/>
    </g>
  </g>
  <g>
    <polygon class="st0" points="286.12 101.05 248.82 101.05 226.44 132.1 225.23 132.1 225.23 70.25 192.02 70.25 192.02 193.47 225.23 193.47 225.23 167.26 230.21 160.91 249.06 193.47 287.09 193.47 254.69 141.55 286.12 101.05"/>
    <path class="st0" d="M352.01,112.51c-4.01-4.11-8.84-7.25-14.5-9.42-5.66-2.17-11.97-3.25-18.95-3.25-9.55,0-17.83,1.99-24.85,5.96-7.02,3.97-12.45,9.53-16.31,16.67-3.85,7.14-5.78,15.48-5.78,25.03s1.92,18.48,5.75,25.6c3.83,7.12,9.31,12.58,16.43,16.37,7.12,3.79,15.61,5.69,25.48,5.69,8.54,0,16.01-1.29,22.41-3.88,6.4-2.59,11.54-6.24,15.43-10.95,3.89-4.71,6.36-10.28,7.4-16.7h-30.32c-.64,1.73-1.65,3.2-3.01,4.42-1.36,1.22-3,2.16-4.9,2.8-1.91.64-4,.96-6.29.96-3.29,0-6.1-.66-8.42-1.99-2.33-1.32-4.11-3.15-5.36-5.48-1.24-2.33-1.87-4.97-1.87-7.94v-1.44h60.17v-7.7c0-7.34-1.08-13.94-3.25-19.79-2.17-5.86-5.26-10.84-9.27-14.95ZM304.36,136.67c.08-2.69.79-5.03,2.14-7.04,1.34-2.01,3.14-3.58,5.38-4.72,2.25-1.14,4.71-1.72,7.4-1.72s5.24.57,7.43,1.72c2.19,1.14,3.93,2.73,5.23,4.75,1.3,2.03,1.98,4.36,2.02,7.01h-29.6Z"/>
    <path class="st0" d="M446.54,112.51c-4.01-4.11-8.84-7.25-14.5-9.42-5.66-2.17-11.97-3.25-18.95-3.25-9.55,0-17.83,1.99-24.85,5.96-7.02,3.97-12.45,9.53-16.31,16.67-3.85,7.14-5.78,15.48-5.78,25.03s1.92,18.48,5.75,25.6c3.83,7.12,9.31,12.58,16.43,16.37,7.12,3.79,15.61,5.69,25.48,5.69,8.54,0,16.01-1.29,22.41-3.88,6.4-2.59,11.54-6.24,15.43-10.95,3.89-4.71,6.36-10.28,7.4-16.7h-30.32c-.64,1.73-1.65,3.2-3.01,4.42-1.36,1.22-3,2.16-4.9,2.8-1.91.64-4,.96-6.29.96-3.29,0-6.1-.66-8.42-1.99-2.33-1.32-4.11-3.15-5.36-5.48-1.24-2.33-1.87-4.97-1.87-7.94v-1.44h60.17v-7.7c0-7.34-1.08-13.94-3.25-19.79-2.17-5.86-5.26-10.84-9.27-14.95ZM398.89,136.67c.08-2.69.79-5.03,2.14-7.04,1.34-2.01,3.14-3.58,5.38-4.72,2.25-1.14,4.71-1.72,7.4-1.72s5.24.57,7.43,1.72c2.19,1.14,3.93,2.73,5.23,4.75,1.3,2.03,1.98,4.36,2.02,7.01h-29.6Z"/>
    <path class="st0" d="M539.52,104.33c-4.83-2.99-10.52-4.48-17.06-4.48s-12.71,1.66-17.78,4.99c-5.07,3.33-8.61,7.92-10.62,13.78h-.96v-17.57h-31.53v92.42h33.21v-51.99c.04-3.05.6-5.67,1.68-7.85,1.08-2.19,2.64-3.87,4.66-5.05,2.02-1.18,4.4-1.78,7.13-1.78,4.17,0,7.43,1.3,9.78,3.91,2.35,2.61,3.5,6.2,3.46,10.77v51.99h33.21v-58.97c.04-6.7-1.27-12.65-3.94-17.87-2.67-5.21-6.42-9.32-11.25-12.3Z"/>
    <polygon class="st0" points="661.31 101.05 651.2 156.89 650.48 156.89 638.21 101.05 605.96 101.05 594.16 157.37 593.44 157.37 582.85 101.05 549.64 101.05 572.74 193.47 608.61 193.47 621.6 143.89 622.56 143.89 635.56 193.47 671.42 193.47 694.53 101.05 661.31 101.05"/>
    <path class="st0" d="M762.8,108.6c-3.69-2.75-8.16-4.89-13.42-6.44-5.26-1.54-11.19-2.32-17.81-2.32-9.19,0-16.85,1.43-22.98,4.3-6.14,2.87-10.8,6.68-13.99,11.43-3.19,4.75-4.98,9.94-5.38,15.55h30.57c.4-2.85,1.59-4.96,3.58-6.35s4.56-2.08,7.73-2.08c2.89,0,5.25.64,7.1,1.92,1.84,1.28,2.77,3.13,2.77,5.54v.24c0,1.77-.7,3.18-2.11,4.24-1.4,1.06-3.68,1.89-6.83,2.47-3.15.58-7.31,1.07-12.49,1.47-4.77.36-9.22,1.14-13.33,2.35-4.11,1.2-7.71,2.95-10.8,5.23-3.09,2.29-5.5,5.23-7.22,8.81-1.73,3.59-2.59,7.91-2.59,12.97,0,6.14,1.28,11.19,3.85,15.16,2.57,3.97,6.11,6.93,10.62,8.88,4.51,1.95,9.72,2.92,15.61,2.92,4.01,0,7.69-.48,11.04-1.44,3.35-.96,6.34-2.51,8.97-4.63,2.63-2.13,4.86-4.91,6.71-8.36h.72v13h31.05v-63.3c0-4.29-.97-8.27-2.92-11.94-1.95-3.67-4.76-6.88-8.45-9.63ZM741.2,160.74c0,2.81-.7,5.2-2.11,7.16-1.4,1.96-3.22,3.47-5.44,4.51-2.23,1.04-4.6,1.56-7.13,1.56-2.81,0-5.11-.68-6.92-2.05-1.81-1.36-2.71-3.33-2.71-5.89,0-1.61.39-3.06,1.17-4.36.78-1.3,1.99-2.41,3.61-3.31,1.62-.9,3.72-1.55,6.29-1.96,1.32-.2,2.6-.42,3.82-.66,1.22-.24,2.39-.5,3.49-.78,1.1-.28,2.14-.58,3.13-.9.98-.32,1.92-.66,2.8-1.02v7.7Z"/>
    <path class="st0" d="M833.97,101.05l-15.16,64.02h-.96l-14.92-64.02h-34.66l32.49,96.51-.72,1.69c-.72,1.69-1.9,2.83-3.52,3.43-1.62.6-3.57.76-5.84.48-2.27-.28-4.76-.9-7.49-1.87l-7.22,23.59c2.61,1,5.63,1.79,9.08,2.38s7.08.87,10.89.87c7.74,0,14.2-1.18,19.37-3.55,5.18-2.37,9.36-5.59,12.54-9.66,3.19-4.07,5.63-8.66,7.31-13.75l33.69-100.12h-34.9Z"/>
  </g>
</svg>